<?xml version="1.0" encoding="utf-8"?>
<!-- Generator: Adobe Illustrator 18.1.1, SVG Export Plug-In . SVG Version: 6.00 Build 0)  -->
<!DOCTYPE svg PUBLIC "-//W3C//DTD SVG 1.1//EN" "http://www.w3.org/Graphics/SVG/1.1/DTD/svg11.dtd">
<svg version="1.1" id="Layer_1" xmlns="http://www.w3.org/2000/svg" xmlns:xlink="http://www.w3.org/1999/xlink" x="0px" y="0px"
	 width="28.8px" height="28.8px" viewBox="0 0 28.8 28.8" enable-background="new 0 0 28.8 28.8" xml:space="preserve">
<path id="White_2_" fill="#FFFFFF" d="M27.2,0H1.6C0.7,0,0,0.7,0,1.6v25.6c0,0.9,0.7,1.6,1.6,1.6h13.8V17.6h-3.7v-4.3h3.7v-3.2
	c0-3.7,2.3-5.7,5.6-5.7c1.6,0,3,0.1,3.3,0.2v3.9l-2.3,0c-1.8,0-2.2,0.9-2.2,2.1v2.8h4.3l-0.6,4.3h-3.7v11.1h7.3
	c0.9,0,1.6-0.7,1.6-1.6V1.6C28.8,0.7,28.1,0,27.2,0z"/>
</svg>
