<svg xmlns="http://www.w3.org/2000/svg" width="1342.183" height="485.878"><ellipse cx="688.088" cy="212.687" fill="#474747" rx="212.521" ry="212.687"/><g fill="#474747"><path d="M456.9 356.84l-6.68-11.33c-.38-.63-.5-1.3-.38-1.97.13-.7.5-1.2 1.1-1.57l15.63-9.23c.58-.33 1.2-.4 1.88-.2s1.2.65 1.58 1.3l6.68 11.32c.4.63.5 1.3.37 2-.15.7-.5 1.2-1.08 1.54l-15.65 9.22c-.6.36-1.23.43-1.9.2-.65-.22-1.17-.64-1.55-1.28zm-1.08-11.46l3.9 6.62 11.4-6.72-3.92-6.62-11.38 6.72zM481.5 365.92l2.35-1.7-3.85-5.33-10.7 7.73 3.84 5.34 2.35-1.7 3.17 4.4-4.3 3.1c-.58.42-1.2.55-1.88.4-.7-.17-1.25-.57-1.7-1.2l-7-9.67c-.46-.63-.65-1.28-.58-1.96.07-.68.4-1.23.96-1.64l14.68-10.6c.56-.42 1.2-.56 1.87-.42.68.13 1.25.5 1.7 1.14l7 9.68c.46.63.65 1.3.57 2-.08.7-.4 1.26-.97 1.67l-4.35 3.15-3.17-4.4zM500.08 383.9l-3.45-4.03-13.8 11.8-3.53-4.1 13.8-11.82-3.46-4.03 3.68-3.15 10.44 12.2-3.68 3.14zM502.6 412.14l-9.45-9.15c-.53-.52-.82-1.13-.88-1.82-.07-.7.15-1.3.64-1.8l12.64-13.04c.46-.48 1.05-.7 1.75-.68.7.02 1.32.3 1.85.8l9.46 9.16c.53.5.82 1.12.87 1.82.05.7-.16 1.3-.62 1.78l-12.63 13.05c-.5.5-1.08.74-1.78.7-.7-.04-1.3-.3-1.83-.83zm-4.08-10.76l5.52 5.34 9.2-9.5-5.53-5.34-9.18 9.5zM536.6 410.84c.53.44.87 1.02 1 1.73.12.7-.04 1.34-.48 1.88l-11.4 14.07c-.44.55-1 .83-1.72.84-.7 0-1.34-.2-1.9-.64l-12.1-9.8 14.48-17.88 12.1 9.8zm-13.52 12.42l2.6-3.23-5.84-4.73-2.62 3.23 5.86 4.73zm2.46-15l-2.58 3.2 5.85 4.73 2.6-3.2-5.86-4.74zM544.08 422.3l-2.35 3.5 5.46 3.66-2.7 4.03-5.47-3.68-2.32 3.45 9.93 6.66-2.7 4.02-14.33-9.63 12.82-19.1 14.33 9.63-2.76 4.1-9.92-6.65zM562.7 454.53l-.86-9.45-3.43-1.86-3.76 6.93-4.76-2.6 11-20.2 13.73 7.48c.68.37 1.14.9 1.38 1.56.23.65.2 1.28-.13 1.87l-4.88 8.97c-.34.6-.85 1-1.54 1.17-.68.17-1.37.07-2.05-.3l.85 9.45-5.54-3.02zm-1.95-15.6l6.62 3.58 2.54-4.65-6.6-3.6-2.54 4.67zM607.9 448.8c.7.24 1.2.68 1.54 1.3.33.63.38 1.27.14 1.93l-6.2 17.02c-.23.66-.68 1.12-1.34 1.38-.65.27-1.33.28-2.02.03l-10.3-3.75c-.68-.24-1.2-.68-1.53-1.3-.34-.63-.4-1.27-.15-1.93l6.2-17.02c.23-.66.68-1.12 1.34-1.38.64-.27 1.32-.28 2-.02l10.3 3.74zm-4.2 3.67l-5.2-1.9-4.52 12.48 5.2 1.9 4.52-12.48zM628.5 454.77c.7.2 1.25.6 1.63 1.18.4.6.5 1.23.3 1.9l-4.68 17.5c-.2.67-.6 1.17-1.22 1.5-.64.3-1.3.38-2.02.2l-10.46-2.82c-.7-.2-1.26-.6-1.65-1.18-.4-.6-.5-1.23-.3-1.9l4.68-17.5c.18-.67.6-1.17 1.22-1.5.63-.32 1.3-.38 2-.2l10.5 2.82zm-6.3 12.8l-5.17-1.38-1.08 4 5.18 1.4 1.08-4.02zm-3.9-6.15l5.2 1.4 1.07-4.03-5.18-1.4-1.1 4.02zM661 469.83l-.53 4.4-9.82-1.22.54-4.38 9.8 1.2zM694.32 461.9l.1 23-5.42.02-.08-18.1h-5.63l-.03-4.88 11.05-.05zM709.5 461.04L711 484l-5.4.35-1.2-18.07-5.6.36-.33-4.88 11.03-.72zM734.63 485.88l-5.8-32.28 5.33-.96 5.8 32.28-5.33.96zM769.46 448.35c.7-.23 1.37-.2 2.02.1s1.07.78 1.28 1.45l5.46 17.26c.2.67.13 1.3-.23 1.9-.38.6-.9 1-1.6 1.22l-14.82 4.68-6.93-21.94 14.8-4.67zm-1.12 5.54l-7.08 2.23 3.98 12.6 7.08-2.24-3.98-12.6zM783.5 448.3l1.63 3.87 6.07-2.54 1.87 4.47-6.07 2.54 1.6 3.83 11.03-4.6 1.87 4.46-15.93 6.66-8.88-21.23 15.92-6.66 1.9 4.57-11 4.62zM825.46 447.93l-4.18 2.23-16.44-8.88 7.34 13.74-4.73 2.53-10.85-20.28 6.83-3.65 11.6 6.33-5.2-9.75 4.78-2.56 10.86 20.3zM835.65 413.78l7.1 22.93-6.9 4.63-18.53-15.3 4.6-3.06 14.6 11.9-5.46-18.02 4.6-3.07zM845.73 412l2.65 3.28 5.1-4.14 3.06 3.76-5.1 4.14 2.6 3.23 9.3-7.53 3.04 3.76-13.4 10.88-14.5-17.86 13.4-10.88 3.12 3.84-9.27 7.53zM881.86 403.87l-9.27-2-2.8 2.7 5.48 5.67-3.9 3.77-16-16.5 11.24-10.9c.55-.53 1.18-.8 1.9-.83.7-.03 1.28.2 1.75.68l7.1 7.33c.5.5.7 1.1.66 1.82-.05.7-.35 1.33-.9 1.87l9.27 2-4.54 4.4zm-15.48-2.82l5.4-5.23-3.7-3.82-5.4 5.23 3.7 3.82zM892.44 395.05c0 .7-.28 1.33-.8 1.9l-1.16 1.3-5.43-4.9 3-3.33 3.63 3.28c.52.46.77 1.05.76 1.75zM899.72 358.58l-2.36-1.67-3.8 5.37 10.76 7.65 3.8-5.36-2.35-1.68 3.14-4.42 4.35 3.08c.57.4.9.96.96 1.65.07.7-.12 1.35-.56 1.98l-6.93 9.74c-.44.62-1 1.02-1.66 1.16-.67.16-1.28.03-1.86-.38l-14.75-10.5c-.58-.4-.9-.95-1-1.64-.1-.68.1-1.34.53-1.97l6.93-9.75c.43-.63 1-1.02 1.7-1.18.7-.15 1.32-.03 1.9.38l4.37 3.1-3.15 4.43zM927.07 343.2l-6.6 11.4c-.37.62-.88 1.06-1.54 1.28-.66.23-1.3.17-1.9-.2l-15.7-9.1c-.6-.33-.95-.84-1.1-1.54-.14-.7-.03-1.35.34-2l6.6-11.38c.37-.63.9-1.06 1.57-1.28.67-.22 1.3-.16 1.87.18l15.72 9.1c.6.36.98.87 1.1 1.56.14.68.02 1.34-.35 1.98zm-9.46 6.56l3.86-6.65-11.43-6.6-3.85 6.63 11.43 6.63z"/></g><ellipse cx="688.088" cy="212.687" fill="#2DABE1" rx="199.362" ry="199.517"/><ellipse cx="688.088" cy="212.687" fill="#2DABE1" rx="199.362" ry="199.517"/><path fill="#464545" d="M688.1 38.55l38.3 120.02h123.94l-100.28 74.15 38.3 120-100.27-74.16L587.8 352.7l38.3-119.98-100.28-74.16H649.8z"/><path fill="#fff" d="M689 81.16l29.12 91.16h94.13l-76.17 56.32 29.1 91.15L689 263.45l-76.15 56.33 29.08-91.16-76.16-56.32h94.16z"/><path fill="#BE1E2D" d="M688.2 153.57l13.16 41.2h42.55l-34.42 25.47 13.15 41.2-34.43-25.46-34.43 25.46 13.15-41.2-34.43-25.46h42.55z"/><g fill="#464545"><path d="M975.56 230.48v14.92h43.03v17.37H956.1V221.8c0-2.52.95-4.63 2.84-6.33 1.88-1.7 4.2-2.55 6.98-2.55h33.2V198h-43.02v-17.57h52.84c2.64 0 4.9.85 6.8 2.55 1.88 1.7 2.83 3.75 2.83 6.14v41.36h-43.04zM1082.18 180.06c2.64 0 4.9.85 6.8 2.55 1.88 1.7 2.82 3.82 2.82 6.33v64.97c0 2.52-.94 4.63-2.83 6.33-1.9 1.7-4.15 2.54-6.8 2.54h-39.24c-2.64 0-4.9-.85-6.8-2.54-1.88-1.7-2.83-3.8-2.83-6.33v-64.97c0-2.5.95-4.62 2.83-6.32 1.9-1.7 4.16-2.54 6.8-2.54h39.25zm-9.63 17.56h-19.8v47.6h19.8v-47.6zM1143.9 180.25v82.53h-19.45V197.8h-20.2v-17.55h39.64zM1176.72 197.43v14.73h28.87c2.64 0 4.9.82 6.8 2.46 1.87 1.63 2.82 3.7 2.82 6.23v33.05c0 2.52-.95 4.63-2.83 6.33-1.9 1.7-4.16 2.54-6.8 2.54h-48.5V245.2h38.68v-15.47h-38.69v-49.86h58.12v17.56h-38.5z"/></g><g fill="#464545"><path d="M167.2 206.3v-10.98h-28.8v49.44h28.8v-10.8h-12.34v-18.24h32.35v38.05c0 2.63-.97 4.82-2.93 6.6s-4.3 2.63-7.06 2.63h-48.8c-2.75 0-5.1-.88-7.06-2.64s-2.94-3.96-2.94-6.58v-67.5c0-2.6.98-4.8 2.94-6.56s4.3-2.65 7.06-2.65h48.8c2.76 0 5.1.9 7.07 2.65s2.94 3.96 2.94 6.57v20h-20zM263.27 263l-6.66-20.2h-31.75L218 263h-20.8l28.04-85.53h30.78L284.05 263h-20.78zm-22.54-67.5l-9.8 28.85h19.4l-9.6-28.84zM343.85 195.32h-19.8V263h-20.2v-67.68h-19.8v-18.05h59.8v18.05zM377.17 195.7v15.7h24.5v18.05h-24.5V263h-19.8v-85.73h64.3v18.44h-44.5z"/></g><path fill="#BE1E2D" d="M32.87 192.74l7.76 24.32h25.1l-20.3 15.02 7.75 24.3-20.3-15-20.32 15 7.75-24.3L0 217.06h25.1zM1309.3 192.74l7.78 24.32h25.1l-20.3 15.02 7.75 24.3-20.32-15-20.3 15 7.76-24.3-20.32-15.02h25.12z"/><g fill="#464545"><path d="M686.77 327.28h-5.53v18.9h-5.64v-18.9h-5.53v-5.04h16.7v5.04zM694.66 327.4v4.37h6.85v5.04h-6.84v9.38h-5.53v-23.94h17.96v5.15h-12.44zM681.12 306.86v-2.5h-6.57v11.26h6.57v-2.46h-2.8V309h7.37v8.67c0 .6-.24 1.1-.68 1.5s-1 .62-1.6.62h-11.15c-.63 0-1.17-.2-1.62-.62s-.67-.9-.67-1.5v-15.4c0-.58.23-1.08.67-1.5s1-.6 1.62-.6h11.14c.63 0 1.17.2 1.62.6s.67.92.67 1.5v4.58h-4.58zM702.5 319.8l-1.5-4.62h-7.26l-1.56 4.6h-4.75l6.4-19.5h7.02l6.4 19.5h-4.74zm-5.13-15.4l-2.24 6.57h4.43l-2.2-6.58z"/></g><ellipse cx="651.24" cy="739.214" fill="#474747" rx="80.75" ry="80.813"/><ellipse cx="651.24" cy="739.214" fill="#2DABE1" rx="75.75" ry="75.809"/><ellipse cx="651.24" cy="739.214" fill="#2DABE1" rx="75.75" ry="75.809"/><path fill="#464545" d="M651.24 673.05l14.56 45.6h47.1l-38.1 28.17 14.54 45.6-38.1-28.18-38.1 28.18 14.55-45.6-38.1-28.17h47.1z"/><path fill="#fff" d="M651.6 689.24l11.05 34.63h35.77l-28.94 21.4 11.05 34.64-28.94-21.4-28.95 21.4 11.05-34.62-28.94-21.4h35.78z"/><path fill="#BE1E2D" d="M651.28 716.75l5 15.66h16.17l-13.08 9.68 5 15.66-13.1-9.68-13.07 9.68 5-15.66-13.1-9.67h16.2z"/><text transform="matrix(.999 0 0 1 749.714 758.246)"><tspan x="0" y="0" fill="#fff" font-family="'ONRAMP'" font-size="71.758">2</tspan><tspan x="29.348" y="0" fill="#fff" font-family="'ONRAMP'" font-size="71.758">0</tspan><tspan x="57.476" y="0" fill="#fff" font-family="'ONRAMP'" font-size="71.758" letter-spacing="-1.001">15</tspan></text><text transform="matrix(.999 0 0 1 432.397 758.333)"><tspan x="0" y="0" fill="#fff" font-family="'ONRAMP'" font-size="74.545" letter-spacing="1.001">G</tspan><tspan x="31.905" y="0" fill="#fff" font-family="'ONRAMP'" font-size="74.545">A</tspan><tspan x="65.301" y="0" fill="#fff" font-family="'ONRAMP'" font-size="74.545">T</tspan><tspan x="92.062" y="0" fill="#fff" font-family="'ONRAMP'" font-size="74.545" letter-spacing="-1.001">F</tspan></text><path fill="#BE1E2D" d="M402.28 731.64l2.95 9.23h9.54l-7.72 5.7 2.95 9.25-7.72-5.7-7.72 5.7 2.95-9.24-7.7-5.7h9.53zM887.28 731.64l2.95 9.23h9.54l-7.72 5.7 2.95 9.25-7.72-5.7-7.72 5.7 2.95-9.24-7.7-5.7h9.54z"/><g fill="#464545" font-family="'ONRAMP'"><text transform="translate(643.728 789.937)" font-size="20.811">tf</text><text transform="translate(643.702 779.908)" font-size="17.269">ga</text></g><ellipse cx="1792.349" cy="886.499" fill="#474747" rx="160" ry="160.125"/><ellipse cx="1792.349" cy="886.499" fill="#2DABE1" rx="150.093" ry="150.21"/><ellipse cx="1792.349" cy="886.499" fill="#2DABE1" rx="150.093" ry="150.21"/><path fill="#464545" d="M1792.35 755.4l28.85 90.35h93.3l-75.5 55.83 28.84 90.34-75.5-55.83-75.48 55.82 28.83-90.34-75.5-55.83h93.32z"/><path fill="#fff" d="M1793.04 787.48l21.92 68.63h70.86l-57.34 42.4 21.9 68.63-57.34-42.4-57.34 42.4 21.9-68.62-57.34-42.4h70.9z"/><path fill="#BE1E2D" d="M1792.43 842l9.9 31h32.04l-25.92 19.18 9.9 31.02-25.92-19.17-25.92 19.17 9.9-31.02-25.9-19.16h32.03z"/><g fill="#464545" font-family="'ONRAMP'"><text transform="translate(1777.463 987.001)" font-size="41.235" letter-spacing="-1">tf</text><text transform="translate(1777.413 967.132)" font-size="34.217">ga</text></g><text transform="matrix(.999 0 0 1 1722.071 1181.562)"><tspan x="0" y="0" fill="#fff" font-family="'ONRAMP'" font-size="96.928">2</tspan><tspan x="39.642" y="0" fill="#fff" font-family="'ONRAMP'" font-size="96.928">0</tspan><tspan x="77.637" y="0" fill="#fff" font-family="'ONRAMP'" font-size="96.928" letter-spacing="-1.001">15</tspan></text><text transform="matrix(.999 0 0 1 1674.516 1129.273)"><tspan x="0" y="0" fill="#fff" font-family="'ONRAMP'" font-size="147.706" letter-spacing="3.002">G</tspan><tspan x="63.217" y="0" fill="#fff" font-family="'ONRAMP'" font-size="147.706">A</tspan><tspan x="129.389" y="0" fill="#fff" font-family="'ONRAMP'" font-size="147.706" letter-spacing="-1.001">T</tspan><tspan x="182.413" y="0" fill="#fff" font-family="'ONRAMP'" font-size="147.706" letter-spacing="-2.002">F</tspan></text><path fill="#BE1E2D" d="M1751.8 1202.8l3.14 9.8h10.13l-8.2 6.06 3.14 9.8-8.2-6.06-8.2 6.06 3.14-9.8-8.2-6.06h10.14zM1792.9 1202.8l3.14 9.8h10.13l-8.2 6.06 3.14 9.8-8.2-6.06-8.18 6.06 3.13-9.8-8.2-6.06h10.13zM1834 1202.8l3.15 9.8h10.13l-8.2 6.06 3.13 9.8-8.2-6.06-8.18 6.06 3.13-9.8-8.2-6.06h10.13z"/><path fill="#fff" d="M476.35 1106.35h80v141h-80z"/><path fill="#464545" d="M556.85 1247.85h-81v-142h81v142zm-80-1h79v-140h-79v140z"/><g fill="#2DABE1"><path d="M533.18 1233.8v-7.4c.4-.02.55-.3.55-.58h.66v8h-1.22zM539.4 1226.9h-2.2l-.18 2.26c.27-.45.87-.78 1.7-.78 1.12 0 1.76.7 1.76 1.75v1.66c0 1.37-.85 2.2-2.37 2.2-1.5 0-2.27-1-2.27-2.1v-.44h1.1v.24c0 .78.36 1.3 1.18 1.3.8 0 1.2-.4 1.2-1.3v-1.37c0-.62-.34-1-.93-1-.78 0-1.2.5-1.45 1l-.97-.2.25-4.3h4.27c-.07.7-.25 1.08-1.07 1.08z"/></g><g fill="#464545" font-family="'ONRAMP'" font-size="58.799"><text transform="translate(493.382 1233.809)">tf</text><text transform="translate(490.144 1199.665)">ga</text></g><path fill="#464545" d="M515.84 1118.75l5.8 18.12h18.7l-15.14 11.2 5.78 18.1-15.14-11.2-15.13 11.2 5.8-18.1-15.15-11.2h18.7z"/><path fill="#fff" d="M515.98 1125.18l4.4 13.77h14.2l-11.5 8.5 4.4 13.76-11.5-8.5-11.5 8.5 4.4-13.75-11.5-8.5h14.2z"/><path fill="#BE1E2D" d="M515.86 1136.12l2 6.22h6.4l-5.2 3.84 2 6.22-5.2-3.84-5.2 3.84 2-6.22-5.2-3.84h6.42z"/><path fill="#2DABE1" d="M566.22 1106.35h80v141h-80zM571.1 1112.5h70v129.3h-70z"/><g fill="#fff"><path d="M623.05 1233.8v-7.4c.4-.02.55-.3.55-.58h.66v8h-1.2zM629.27 1226.9h-2.2l-.18 2.26c.26-.45.86-.78 1.7-.78 1.1 0 1.75.7 1.75 1.75v1.66c0 1.37-.85 2.2-2.37 2.2-1.5 0-2.28-1-2.28-2.1v-.44h1.1v.24c0 .78.36 1.3 1.18 1.3.8 0 1.2-.4 1.2-1.3v-1.37c0-.62-.35-1-.94-1-.78 0-1.2.5-1.45 1l-.98-.2.25-4.3h4.27c-.07.7-.25 1.08-1.07 1.08z"/></g><g fill="#464545" font-family="'ONRAMP'"><text transform="translate(580.102 1233.809)" font-size="70.86" letter-spacing="-2">tf</text><text transform="translate(580.014 1199.665)" font-size="58.799">ga</text></g><path fill="#464545" d="M605.7 1118.75l5.8 18.12h18.7l-15.13 11.2 5.78 18.1-15.14-11.2-15.12 11.2 5.78-18.1-15.14-11.2h18.7z"/><path fill="#fff" d="M605.85 1125.18l4.4 13.77h14.2l-11.5 8.5 4.4 13.76-11.5-8.5-11.5 8.5 4.4-13.75-11.5-8.5h14.2z"/><path fill="#BE1E2D" d="M605.73 1136.12l2 6.22h6.4l-5.2 3.84 2 6.22-5.2-3.84-5.2 3.84 2-6.22-5.2-3.84h6.4zM386.48 1106.35h80v141h-80z"/><g fill="#2DABE1"><path d="M443.3 1233.8v-7.4c.42-.02.56-.3.56-.58h.66v8h-1.2zM449.53 1226.9h-2.2l-.18 2.26c.27-.45.87-.78 1.7-.78 1.12 0 1.76.7 1.76 1.75v1.66c0 1.37-.84 2.2-2.36 2.2-1.5 0-2.28-1-2.28-2.1v-.44h1.1v.24c0 .78.36 1.3 1.18 1.3.8 0 1.2-.4 1.2-1.3v-1.37c0-.62-.35-1-.94-1-.78 0-1.2.5-1.45 1l-.97-.2.25-4.3h4.27c-.07.7-.25 1.08-1.07 1.08z"/></g><g fill="#fff" font-family="'ONRAMP'"><text transform="translate(400.361 1233.809)" font-size="70.86" letter-spacing="-2">tf</text><text transform="translate(400.274 1199.665)" font-size="58.799">ga</text></g><path fill="#464545" d="M425.97 1118.75l5.8 18.12h18.7l-15.14 11.2 5.78 18.1-15.13-11.2-15.13 11.2 5.78-18.1-15.14-11.2h18.7z"/><path fill="#fff" d="M426.1 1125.18l4.4 13.77h14.2l-11.48 8.5 4.4 13.76-11.5-8.5-11.5 8.5 4.38-13.75-11.5-8.5h14.22z"/><path fill="#BE1E2D" d="M426 1136.12l1.98 6.22h6.42l-5.2 3.84 2 6.22-5.2-3.84-5.2 3.84 1.98-6.22-5.2-3.84H424z"/><path fill="#232525" d="M656.1 1106.35h80v141h-80z"/><g fill="#fff"><path d="M712.92 1233.8v-7.4c.4-.02.55-.3.55-.58h.66v8h-1.2zM719.14 1226.9h-2.2l-.18 2.26c.27-.45.87-.78 1.7-.78 1.12 0 1.76.7 1.76 1.75v1.66c0 1.37-.85 2.2-2.37 2.2-1.5 0-2.28-1-2.28-2.1v-.44h1.1v.24c0 .78.36 1.3 1.18 1.3.8 0 1.2-.4 1.2-1.3v-1.37c0-.62-.35-1-.94-1-.77 0-1.2.5-1.44 1l-.97-.2.24-4.3h4.27c-.06.7-.24 1.08-1.06 1.08z"/></g><g fill="#2DABE1" font-family="'ONRAMP'"><text transform="translate(669.973 1233.809)" font-size="70.86" letter-spacing="-2">tf</text><text transform="translate(669.885 1199.665)" font-size="58.799">ga</text></g><path fill="#464545" d="M695.58 1118.75l5.8 18.12h18.7l-15.14 11.2 5.78 18.1-15.14-11.2-15.13 11.2 5.78-18.1-15.14-11.2h18.7z"/><path fill="#fff" d="M695.72 1125.18l4.4 13.77h14.2l-11.5 8.5 4.4 13.76-11.5-8.5-11.5 8.5 4.4-13.75-11.5-8.5h14.2z"/><path fill="#BE1E2D" d="M695.6 1136.12l2 6.22h6.4l-5.2 3.84 2 6.22-5.2-3.84-5.2 3.84 2-6.22-5.2-3.84h6.42z"/><ellipse cx="778.883" cy="-382.98" fill="#474747" rx="212.521" ry="212.687"/><ellipse cx="778.883" cy="-382.98" fill="none" transform="matrix(.707 .707 -.707 .707 -42.678 -662.926)" rx="234.318" ry="234.501"/><text transform="matrix(.508 .861 -.861 .508 538.12 -255.054)"><tspan x="0" y="0" fill="#474747" font-family="'ONRAMP'" font-size="52.637">o</tspan><tspan x="26.999" y="-.215" fill="#474747" font-family="'ONRAMP'" font-size="52.637" rotate="-5.317">c</tspan><tspan x="49.791" y="-2.459" fill="#474747" font-family="'ONRAMP'" font-size="52.637" rotate="-10.005">t</tspan><tspan x="71.531" y="-6.252" fill="#474747" font-family="'ONRAMP'" font-size="52.637" rotate="-15.38">o</tspan><tspan x="97.417" y="-13.482" fill="#474747" font-family="'ONRAMP'" font-size="52.637" rotate="-20.457">b</tspan><tspan x="120.24" y="-22.128" fill="#474747" font-family="'ONRAMP'" font-size="52.637" rotate="-25.564">e</tspan><tspan x="142.015" y="-32.634" fill="#474747" font-family="'ONRAMP'" font-size="52.637" rotate="-30.896">r</tspan><tspan x="176.994" y="-55.264" fill="#474747" font-family="'ONRAMP'" font-size="52.637" rotate="-39.463">0</tspan><tspan x="195.067" y="-70.286" fill="#474747" font-family="'ONRAMP'" font-size="52.637" rotate="-44.429">8</tspan><tspan x="221.962" y="-98.498" fill="#474747" font-family="'ONRAMP'" font-size="52.637" rotate="-52.447">-</tspan><tspan x="243.449" y="-128.511" fill="#474747" font-family="'ONRAMP'" font-size="52.637" rotate="-59.713">1</tspan><tspan x="251.775" y="-142.873" fill="#474747" font-family="'ONRAMP'" font-size="52.637" rotate="-63.188">1</tspan><tspan x="265.297" y="-171.934" fill="#474747" font-family="'ONRAMP'" font-size="52.637" rotate="-69.644">|</tspan><tspan x="274.953" y="-200.298" fill="#474747" font-family="'ONRAMP'" font-size="52.637" rotate="-76.988">D</tspan><tspan x="280.418" y="-224.553" fill="#474747" font-family="'ONRAMP'" font-size="52.637" rotate="-82.154">e</tspan><tspan x="283.658" y="-248.536" fill="#474747" font-family="'ONRAMP'" font-size="52.637" rotate="-87.574">n</tspan><tspan x="284.644" y="-275.666" fill="#474747" font-family="'ONRAMP'" font-size="52.637" rotate="-93.226">v</tspan><tspan x="283.003" y="-301.725" fill="#474747" font-family="'ONRAMP'" font-size="52.637" rotate="-98.509">e</tspan><tspan x="279.355" y="-325.379" fill="#474747" font-family="'ONRAMP'" font-size="52.637" rotate="-103.523">r</tspan><tspan x="273.053" y="-350.069" fill="#474747" font-family="'ONRAMP'" font-size="52.637" rotate="-107.407">,</tspan><tspan x="264.818" y="-374.193" fill="#474747" font-family="'ONRAMP'" font-size="52.637" rotate="-114.042">c</tspan><tspan x="255.309" y="-395.412" fill="#474747" font-family="'ONRAMP'" font-size="52.637" rotate="-119.348">o</tspan></text><ellipse cx="778.883" cy="-382.98" fill="#2DABE1" rx="199.362" ry="199.517"/><ellipse cx="778.883" cy="-382.98" fill="#2DABE1" rx="199.362" ry="199.517"/><path fill="#464545" d="M778.88-557.1l38.33 120h123.93l-100.28 74.15 38.3 120-100.27-74.16-100.26 74.15 38.28-120-100.26-74.15H740.6z"/><path fill="#fff" d="M779.8-514.5l29.1 91.15h94.14l-76.16 56.33 29.08 91.14-76.16-56.32-76.16 56.32 29.1-91.14-76.18-56.33h94.16z"/><path fill="#BE1E2D" d="M779-442.1l13.15 41.2h42.55l-34.43 25.47 13.15 41.2L779-359.7l-34.44 25.47 13.15-41.2-34.42-25.46h42.57z"/><text transform="matrix(.999 0 0 1 1038.049 -332.891)"><tspan x="0" y="0" fill="#464545" font-family="'ONRAMP'" font-size="188.856">2</tspan><tspan x="77.239" y="0" fill="#464545" font-family="'ONRAMP'" font-size="188.856" letter-spacing="-1.001">0</tspan><tspan x="151.27" y="0" fill="#464545" font-family="'ONRAMP'" font-size="188.856" letter-spacing="-3.002">15</tspan></text><text transform="matrix(.999 0 0 1 202.923 -332.663)"><tspan x="0" y="0" fill="#464545" font-family="'ONRAMP'" font-size="196.191" letter-spacing="4.003">G</tspan><tspan x="83.969" y="0" fill="#464545" font-family="'ONRAMP'" font-size="196.191">A</tspan><tspan x="171.861" y="0" fill="#464545" font-family="'ONRAMP'" font-size="196.191" letter-spacing="-1.001">T</tspan><tspan x="242.292" y="0" fill="#464545" font-family="'ONRAMP'" font-size="196.191" letter-spacing="-3.002">F</tspan></text><path fill="#BE1E2D" d="M123.67-402.92l7.76 24.3h25.1l-20.3 15.03 7.75 24.32-20.3-15.02-20.33 15.02 7.76-24.3-20.3-15.03h25.1zM1400.1-402.92l7.77 24.3h25.1l-20.3 15.03 7.75 24.32-20.3-15.02-20.33 15.02 7.75-24.3-20.3-15.03h25.1z"/><g fill="#464545" font-family="'ONRAMP'"><text transform="translate(759.112 -249.488)" font-size="54.771" letter-spacing="-1">tf</text><text transform="translate(759.346 -275.88)" font-size="44.741">ga</text></g></svg>