<?xml version="1.0" encoding="utf-8"?>
<!-- Generator: Adobe Illustrator 19.0.0, SVG Export Plug-In . SVG Version: 6.00 Build 0)  -->
<!DOCTYPE svg PUBLIC "-//W3C//DTD SVG 1.1//EN" "http://www.w3.org/Graphics/SVG/1.1/DTD/svg11.dtd">
<svg version="1.1" id="Layer_1" xmlns="http://www.w3.org/2000/svg" xmlns:xlink="http://www.w3.org/1999/xlink" x="0px" y="0px"
	 width="349.6px" height="142px" viewBox="-130 326 349.6 142" style="enable-background:new -130 326 349.6 142;"
	 xml:space="preserve">
<style type="text/css">
	.st0{fill:#474747;}
	.st1{fill:#2DABE1;}
	.st2{fill:#464545;}
	.st3{fill:#FFFFFF;}
	.st4{fill:#BE1E2D;}
	.st5{enable-background:new    ;}
	.st6{fill:#232525;}
	.st7{fill:none;}
</style>
<ellipse class="st0" cx="171.6" cy="-567.2" rx="212.5" ry="212.7"/>
<g>
	<path class="st0" d="M-59.6-423l-6.7-11.3c-0.4-0.6-0.5-1.3-0.4-2c0.1-0.7,0.5-1.2,1.1-1.6l15.6-9.2c0.6-0.3,1.2-0.4,1.9-0.2
		s1.2,0.6,1.6,1.3l6.7,11.3c0.4,0.6,0.5,1.3,0.4,2c-0.2,0.7-0.5,1.2-1.1,1.5l-15.6,9.2c-0.6,0.4-1.2,0.4-1.9,0.2
		C-58.7-422-59.2-422.4-59.6-423L-59.6-423z M-60.7-434.5l3.9,6.6l11.4-6.7l-3.9-6.6L-60.7-434.5L-60.7-434.5z M-35-413.9l2.3-1.7
		l-3.8-5.3l-10.7,7.8l3.8,5.3l2.3-1.7l3.2,4.4l-4.3,3.1c-0.6,0.4-1.2,0.5-1.9,0.4c-0.7-0.2-1.2-0.6-1.7-1.2l-7-9.7
		c-0.5-0.6-0.7-1.3-0.6-2c0.1-0.7,0.4-1.2,1-1.7l14.7-10.6c0.6-0.4,1.2-0.5,1.9-0.4c0.7,0.1,1.3,0.5,1.7,1.1l7,9.7
		c0.5,0.6,0.7,1.3,0.6,2c-0.1,0.7-0.4,1.3-1,1.7l-4.3,3.2L-35-413.9L-35-413.9z M-16.4-395.9l-3.4-4l-13.8,11.8l-3.5-4.1l13.8-11.8
		l-3.5-4l3.7-3.2l10.4,12.2C-12.7-399.1-16.4-395.9-16.4-395.9z M-13.9-367.7l-9.5-9.2c-0.5-0.5-0.8-1.1-0.9-1.8
		c-0.1-0.7,0.1-1.3,0.6-1.8l12.6-13c0.5-0.5,1.1-0.7,1.8-0.7c0.7,0,1.3,0.3,1.8,0.8l9.5,9.2c0.5,0.5,0.8,1.1,0.9,1.8
		c0,0.7-0.2,1.3-0.6,1.8l-12.6,13c-0.5,0.5-1.1,0.7-1.8,0.7C-12.8-366.9-13.4-367.2-13.9-367.7L-13.9-367.7z M-18-378.5l5.5,5.3
		l9.2-9.5l-5.5-5.3L-18-378.5L-18-378.5z M20.1-369c0.6,0.4,0.9,1,1,1.7c0.1,0.7,0,1.3-0.5,1.9L9.2-351.3c-0.4,0.5-1,0.8-1.7,0.8
		c-0.7,0-1.3-0.2-1.9-0.6l-12.1-9.8L8-378.8L20.1-369L20.1-369z M6.6-356.6l2.6-3.2l-5.9-4.7l-2.6,3.2L6.6-356.6L6.6-356.6z
		 M9.1-371.6l-2.6,3.2l5.9,4.7l2.6-3.2L9.1-371.6L9.1-371.6z M27.6-357.5l-2.4,3.5l5.5,3.7l-2.7,4l-5.4-3.7l-2.3,3.5l9.9,6.7l-2.7,4
		l-14.3-9.6L26-364.6l14.3,9.6l-2.8,4.1L27.6-357.5L27.6-357.5z M46.2-325.3l-0.8-9.5l-3.4-1.9l-3.8,6.9l-4.8-2.6l11-20.2l13.7,7.5
		c0.7,0.4,1.1,0.9,1.4,1.6c0.2,0.7,0.2,1.3-0.1,1.9l-4.9,9c-0.3,0.6-0.9,1-1.5,1.2c-0.7,0.2-1.4,0.1-2.1-0.3l0.9,9.4L46.2-325.3
		L46.2-325.3z M44.3-340.9l6.6,3.6l2.6-4.7l-6.6-3.6L44.3-340.9L44.3-340.9z M91.4-331.1c0.7,0.3,1.2,0.7,1.5,1.3
		c0.3,0.6,0.4,1.3,0.1,1.9l-6.2,17c-0.2,0.7-0.7,1.1-1.3,1.4c-0.6,0.3-1.3,0.3-2,0l-10.3-3.7c-0.7-0.3-1.2-0.7-1.5-1.3
		c-0.3-0.6-0.4-1.3-0.1-1.9l6.2-17c0.2-0.7,0.7-1.1,1.3-1.4c0.7-0.3,1.3-0.3,2,0L91.4-331.1L91.4-331.1z M87.2-327.4l-5.2-1.9
		l-4.5,12.5l5.2,1.9L87.2-327.4z M112-325.1c0.7,0.2,1.3,0.6,1.6,1.2c0.4,0.6,0.5,1.2,0.3,1.9l-4.7,17.5c-0.2,0.7-0.6,1.2-1.2,1.5
		c-0.6,0.3-1.3,0.4-2,0.2l-10.5-2.8c-0.7-0.2-1.3-0.6-1.6-1.2c-0.4-0.6-0.5-1.2-0.3-1.9l4.7-17.5c0.2-0.7,0.6-1.2,1.2-1.5
		c0.6-0.3,1.3-0.4,2-0.2L112-325.1L112-325.1z M105.7-312.3l-5.2-1.4l-1.1,4l5.2,1.4L105.7-312.3z M101.8-318.4l5.2,1.4l1.1-4
		l-5.2-1.4L101.8-318.4L101.8-318.4z M144.5-310l-0.5,4.4l-9.8-1.2l0.5-4.4L144.5-310L144.5-310z M177.8-318l0.1,23l-5.4,0
		l-0.1-18.1l-5.6,0v-4.9L177.8-318L177.8-318z M193-318.8l1.5,22.9l-5.4,0.4l-1.2-18.1l-5.6,0.4l-0.3-4.9L193-318.8L193-318.8z
		 M218.1-294l-5.8-32.3l5.3-1l5.8,32.3L218.1-294z M253-331.5c0.7-0.2,1.4-0.2,2,0.1s1.1,0.8,1.3,1.5l5.5,17.3
		c0.2,0.7,0.1,1.3-0.2,1.9c-0.4,0.6-0.9,1-1.6,1.2l-14.8,4.7l-6.9-21.9L253-331.5L253-331.5z M251.9-326l-7.1,2.2l4,12.6l7.1-2.2
		L251.9-326z M267-331.6l1.6,3.9l6.1-2.5l1.9,4.5l-6.1,2.5l1.6,3.8l11-4.6l1.9,4.5l-15.9,6.7l-8.9-21.2l15.9-6.7l1.9,4.6L267-331.6
		L267-331.6z M309-331.9l-4.2,2.2l-16.4-8.9l7.3,13.7l-4.7,2.5l-10.9-20.3l6.8-3.7l11.6,6.3l-5.2-9.8l4.8-2.6L309-331.9L309-331.9z
		 M319.2-366.1l7.1,22.9l-6.9,4.6l-18.5-15.3l4.6-3.1L320-345l-5.5-18L319.2-366.1L319.2-366.1z M329.3-367.8l2.6,3.3l5.1-4.1
		l3.1,3.8l-5.1,4.1l2.6,3.2l9.3-7.5l3,3.8l-13.4,10.9L322-368.4l13.4-10.9l3.1,3.8L329.3-367.8L329.3-367.8z M365.4-376l-9.3-2
		l-2.8,2.7l5.5,5.7l-3.9,3.8l-16-16.5l11.2-10.9c0.5-0.5,1.2-0.8,1.9-0.8c0.7,0,1.3,0.2,1.8,0.7l7.1,7.3c0.5,0.5,0.7,1.1,0.6,1.8
		c0,0.7-0.4,1.3-0.9,1.9l9.3,2L365.4-376L365.4-376z M349.9-378.8l5.4-5.2l-3.7-3.8l-5.4,5.2L349.9-378.8z M376-384.8
		c0,0.7-0.3,1.3-0.8,1.9l-1.2,1.3l-5.4-4.9l3-3.3l3.6,3.3C375.7-386.1,376-385.5,376-384.8L376-384.8z M383.3-421.3l-2.4-1.7
		l-3.8,5.4l10.8,7.7l3.8-5.4l-2.3-1.7l3.1-4.4l4.3,3.1c0.6,0.4,0.9,1,1,1.6c0.1,0.7-0.1,1.4-0.6,2l-6.9,9.7c-0.4,0.6-1,1-1.7,1.2
		c-0.7,0.2-1.3,0-1.8-0.4L372-414.6c-0.6-0.4-0.9-1-1-1.6c-0.1-0.7,0.1-1.3,0.5-2l6.9-9.7c0.5-0.6,1-1,1.7-1.2
		c0.7-0.2,1.3,0,1.9,0.4l4.4,3.1L383.3-421.3L383.3-421.3z M410.6-436.7l-6.6,11.4c-0.4,0.6-0.9,1.1-1.5,1.3
		c-0.7,0.2-1.3,0.2-1.9-0.2l-15.7-9.1c-0.6-0.3-1-0.8-1.1-1.5c-0.1-0.7,0-1.4,0.3-2l6.6-11.4c0.4-0.6,0.9-1,1.6-1.3
		c0.7-0.2,1.3-0.2,1.9,0.2l15.7,9.1c0.6,0.4,1,0.9,1.1,1.6C411.1-437.9,410.9-437.3,410.6-436.7L410.6-436.7z M401.1-430.1l3.8-6.6
		l-11.4-6.6l-3.8,6.7L401.1-430.1L401.1-430.1z"/>
</g>
<ellipse class="st1" cx="171.6" cy="-567.2" rx="199.4" ry="199.5"/>
<ellipse class="st1" cx="171.6" cy="-567.2" rx="199.4" ry="199.5"/>
<path class="st2" d="M171.6-741.3l38.3,120h123.9l-100.3,74.2l38.3,120l-100.3-74.2L71.3-427.1l38.3-120L9.4-621.3h124L171.6-741.3z
	"/>
<path class="st3" d="M172.5-698.7l29.1,91.2h94.1l-76.2,56.3l29.1,91.1l-76.2-56.3l-76.2,56.3l29.1-91.2l-76.2-56.3h94.2
	L172.5-698.7z"/>
<path class="st4" d="M171.7-626.3l13.2,41.2h42.5L193-559.6l13.1,41.2l-34.4-25.5l-34.4,25.5l13.1-41.2L116-585.1h42.6L171.7-626.3z
	"/>
<g>
	<path class="st2" d="M459.1-549.4v14.9h43v17.4h-62.5v-41c0-2.5,1-4.6,2.8-6.3c1.9-1.7,4.2-2.5,7-2.5h33.2v-14.9h-43v-17.6h52.8
		c2.7,0,4.9,0.8,6.8,2.5c1.9,1.7,2.8,3.7,2.8,6.1v41.3L459.1-549.4L459.1-549.4z M565.7-599.8c2.6,0,4.9,0.9,6.8,2.6
		c1.9,1.7,2.8,3.8,2.8,6.3v65c0,2.5-0.9,4.6-2.8,6.3c-1.9,1.7-4.2,2.5-6.8,2.5h-39.3c-2.6,0-4.9-0.8-6.8-2.5
		c-1.9-1.7-2.8-3.8-2.8-6.3v-65c0-2.5,1-4.6,2.8-6.3c1.9-1.7,4.2-2.5,6.8-2.5L565.7-599.8L565.7-599.8z M556.1-582.2h-19.8v47.6
		h19.8V-582.2z M627.4-599.6v82.5H608v-65h-20.2v-17.6L627.4-599.6L627.4-599.6z M660.2-582.4v14.7h28.9c2.7,0,4.9,0.8,6.8,2.5
		c1.9,1.6,2.8,3.7,2.8,6.2v33c0,2.5-1,4.6-2.8,6.3s-4.1,2.5-6.8,2.5h-48.5v-17.6h38.7v-15.5h-38.7V-600h58.1v17.6L660.2-582.4
		L660.2-582.4z"/>
</g>
<g>
	<path class="st2" d="M-349.3-573.5v-11h-28.8v49.5h28.8v-10.8h-12.4v-18.3h32.3v38c0,2.6-1,4.8-2.9,6.6c-2,1.8-4.3,2.6-7.1,2.6
		h-48.8c-2.8,0-5.1-0.9-7.1-2.6s-2.9-4-2.9-6.6v-67.5c0-2.6,1-4.8,2.9-6.6s4.3-2.7,7.1-2.7h48.8c2.8,0,5.1,0.9,7.1,2.7
		c2,1.8,2.9,4,2.9,6.6v20L-349.3-573.5L-349.3-573.5z M-253.2-516.8l-6.7-20.2h-31.8l-6.9,20.2h-20.8l28-85.5h30.8l28,85.5H-253.2z
		 M-275.8-584.3l-9.8,28.8h19.4L-275.8-584.3L-275.8-584.3z M-172.6-584.5h-19.8v67.7h-20.2v-67.7h-19.8v-18h59.8
		C-172.6-602.6-172.6-584.5-172.6-584.5z M-139.3-584.1v15.7h24.5v18h-24.5v33.5h-19.8v-85.7h64.3v18.4L-139.3-584.1L-139.3-584.1z"
		/>
</g>
<path class="st4" d="M-483.6-587.1l7.8,24.3h25.1l-20.3,15l7.8,24.3l-20.3-15l-20.3,15l7.8-24.3l-20.3-15h25.1L-483.6-587.1z
	 M792.8-587.1l7.8,24.3h25.1l-20.3,15l7.8,24.3l-20.3-15l-20.3,15l7.8-24.3l-20.3-15h25.1L792.8-587.1z"/>
<g>
	<text transform="matrix(1 0 0 1 151.839 -433.6689)" class="st2" style="font-family:'ONRAMP'; font-size:54.771px;">tf</text>
	<text transform="matrix(1 0 0 1 152.073 -460.062)" class="st2" style="font-family:'ONRAMP'; font-size:44.741px;">ga</text>
</g>
<ellipse class="st0" cx="134.8" cy="-40.6" rx="80.8" ry="80.8"/>
<ellipse class="st1" cx="134.8" cy="-40.6" rx="75.8" ry="75.8"/>
<ellipse class="st1" cx="134.8" cy="-40.6" rx="75.8" ry="75.8"/>
<path class="st2" d="M134.8-106.8l14.6,45.6h47.1L158.3-33l14.5,45.6l-38.1-28.2L96.7,12.6L111.2-33L73.1-61.2h47.1L134.8-106.8z"/>
<path class="st3" d="M135.1-90.6L146.2-56h35.8L153-34.6l11,34.6l-28.9-21.4L106.2,0.1l11.1-34.6L88.3-56h35.8L135.1-90.6z"/>
<path class="st4" d="M134.8-63.1l5,15.7H156l-13.1,9.7l5,15.6l-13.1-9.7l-13.1,9.7l5-15.7l-13.1-9.7h16.2L134.8-63.1z"/>
<text transform="matrix(0.999 0 0 1 233.2363 -21.603)" class="st3" style="font-family:'ONRAMP'; font-size:71.758px;">2</text>
<text transform="matrix(0.999 0 0 1 262.5547 -21.603)" class="st3" style="font-family:'ONRAMP'; font-size:71.758px;">0</text>
<text transform="matrix(0.999 0 0 1 290.6543 -21.603)" class="st3" style="font-family:'ONRAMP'; font-size:71.758px;">15</text>
<text transform="matrix(0.999 0 0 1 -84.082 -21.5161)" class="st3" style="font-family:'ONRAMP'; font-size:74.545px;">G</text>
<text transform="matrix(0.999 0 0 1 -52.209 -21.5161)" class="st3" style="font-family:'ONRAMP'; font-size:74.545px;">A</text>
<text transform="matrix(0.999 0 0 1 -18.8462 -21.5161)" class="st3" style="font-family:'ONRAMP'; font-size:74.545px;">T</text>
<text transform="matrix(0.999 0 0 1 7.8882 -21.5161)" class="st3" style="font-family:'ONRAMP'; font-size:74.545px;">F</text>
<path class="st4" d="M-114.2-48.2l2.9,9.2h9.5l-7.7,5.7l3,9.2l-7.7-5.7l-7.7,5.7l2.9-9.2l-7.7-5.7h9.6L-114.2-48.2z M370.8-48.2
	l3,9.2h9.5l-7.7,5.7l3,9.2l-7.7-5.7l-7.7,5.7l3-9.2l-7.7-5.7h9.6L370.8-48.2z"/>
<g>
	<text transform="matrix(1 0 0 1 127.25 10.088)" class="st2" style="font-family:'ONRAMP'; font-size:20.811px;">tf</text>
	<text transform="matrix(1 0 0 1 127.223 6.005859e-002)" class="st2" style="font-family:'ONRAMP'; font-size:17.269px;">ga</text>
</g>
<ellipse class="st0" cx="1275.9" cy="106.6" rx="160" ry="160.1"/>
<ellipse class="st1" cx="1275.9" cy="106.7" rx="150.1" ry="150.2"/>
<ellipse class="st1" cx="1275.9" cy="106.7" rx="150.1" ry="150.2"/>
<path class="st2" d="M1275.9-24.5l28.8,90.4h93.3l-75.5,55.8l28.8,90.3l-75.5-55.8l-75.5,55.8l28.8-90.3l-75.5-55.8h93.3
	L1275.9-24.5z"/>
<path class="st3" d="M1276.6,7.6l21.9,68.6h70.9l-57.3,42.4l21.9,68.6l-57.3-42.4l-57.3,42.4l21.9-68.6l-57.3-42.4h70.9L1276.6,7.6z
	"/>
<path class="st4" d="M1275.9,62.1l9.9,31h32.1l-25.9,19.2l9.9,31l-25.9-19.2l-25.9,19.2l9.9-31L1234,93.2h32.1L1275.9,62.1z"/>
<g>
	<text transform="matrix(1 0 0 1 1260.985 207.153)" class="st2" style="font-family:'ONRAMP'; font-size:41.235px;">tf</text>
	<text transform="matrix(1 0 0 1 1260.934 187.283)" class="st2" style="font-family:'ONRAMP'; font-size:34.217px;">ga</text>
</g>
<text transform="matrix(0.999 0 0 1 1205.5918 401.7139)" class="st3" style="font-family:'ONRAMP'; font-size:96.928px;">2</text>
<text transform="matrix(0.999 0 0 1 1245.1943 401.7139)" class="st3" style="font-family:'ONRAMP'; font-size:96.928px;">0</text>
<text transform="matrix(0.999 0 0 1 1283.1514 401.7139)" class="st3" style="font-family:'ONRAMP'; font-size:96.928px;">15</text>
<text transform="matrix(0.999 0 0 1 1158.0371 349.4238)" class="st3" style="font-family:'ONRAMP'; font-size:147.706px; letter-spacing:2;">G</text>
<text transform="matrix(0.999 0 0 1 1221.1914 349.4238)" class="st3" style="font-family:'ONRAMP'; font-size:147.706px;">A</text>
<text transform="matrix(0.999 0 0 1 1287.2969 349.4238)" class="st3" style="font-family:'ONRAMP'; font-size:147.706px;">T</text>
<text transform="matrix(0.999 0 0 1 1340.2676 349.4238)" class="st3" style="font-family:'ONRAMP'; font-size:147.706px; letter-spacing:-1;">F</text>
<path class="st4" d="M1235.3,422.9l3.1,9.8h10.1l-8.2,6.1l3.1,9.8l-8.2-6.1l-8.2,6.1l3.1-9.8l-8.2-6.1h10.1L1235.3,422.9z
	 M1276.4,422.9l3.1,9.8h10.1l-8.2,6.1l3.1,9.8l-8.2-6.1l-8.2,6.1l3.1-9.8l-8.2-6.1h10.1L1276.4,422.9z M1317.5,422.9l3.1,9.8h10.1
	l-8.2,6.1l3.1,9.8l-8.2-6.1l-8.2,6.1l3.1-9.8l-8.2-6.1h10.1L1317.5,422.9z"/>
<path class="st3" d="M-40.1,326.5h80v141h-80L-40.1,326.5z"/>
<path class="st2" d="M40.4,468h-81V326h81V468z M-39.6,467h79V327h-79V467z"/>
<g>
	<path class="st1" d="M16.7,454v-7.4c0.4,0,0.6-0.3,0.6-0.6h0.7v8L16.7,454L16.7,454z M22.9,447.1h-2.2l-0.2,2.3
		c0.3-0.4,0.9-0.8,1.7-0.8c1.1,0,1.8,0.7,1.8,1.8v1.7c0,1.4-0.9,2.2-2.4,2.2c-1.5,0-2.3-1-2.3-2.1v-0.4h1.1v0.3
		c0,0.8,0.4,1.3,1.2,1.3c0.8,0,1.2-0.4,1.2-1.3v-1.4c0-0.6-0.4-1-0.9-1c-0.8,0-1.2,0.5-1.5,1l-1-0.2l0.3-4.3H24
		C23.9,446.7,23.7,447.1,22.9,447.1L22.9,447.1z"/>
</g>
<g>
	<g class="st5">
		<path class="st2" d="M-3.3,433.7h-5.9V454h-6.1v-20.3h-5.9v-5.4h17.9V433.7z"/>
		<path class="st2" d="M7.2,433.8v4.7h7.4v5.4H7.2V454H1.2v-25.7h19.3v5.5H7.2z"/>
	</g>
	<g class="st5">
		<path class="st2" d="M-9.8,402.8v-3.3h-8.6v14.8h8.6v-3.2h-3.7v-5.5h9.7v5.5v5.9c0,0.8-0.3,1.4-0.9,2c-0.6,0.5-1.3,0.8-2.1,0.8
			h-14.6c-0.8,0-1.5-0.3-2.1-0.8s-0.9-1.2-0.9-2v-20.2c0-0.8,0.3-1.4,0.9-2s1.3-0.8,2.1-0.8h14.6c0.8,0,1.5,0.3,2.1,0.8
			c0.6,0.5,0.9,1.2,0.9,2v6H-9.8z"/>
		<path class="st2" d="M17.8,419.8l-2-6.1H6.2l-2.1,6.1h-6.2l8.4-25.6h9.2l8.4,25.6H17.8z M11,399.6l-2.9,8.6h5.8L11,399.6z"/>
	</g>
</g>
<path class="st2" d="M-0.6,338.9L5.2,357h18.7L8.7,368.2l5.8,18.1l-15.1-11.2l-15.1,11.2l5.8-18.1L-25.1,357h18.7L-0.6,338.9z"/>
<path class="st3" d="M-0.5,345.3l4.4,13.8h14.2l-11.5,8.5l4.4,13.8l-11.5-8.5l-11.5,8.5l4.4-13.8l-11.5-8.5h14.2L-0.5,345.3z"/>
<path class="st4" d="M-0.6,356.3l2,6.2h6.4l-5.2,3.8l2,6.2l-5.2-3.8l-5.2,3.8l2-6.2l-5.2-3.8h6.4L-0.6,356.3z"/>
<path class="st1" d="M49.7,326.5h80v141h-80L49.7,326.5z M54.6,332.6h70V462h-70V332.6z"/>
<g>
	<path class="st3" d="M106.6,454v-7.4c0.4,0,0.6-0.3,0.6-0.6h0.7v8L106.6,454L106.6,454z M112.8,447.1h-2.2l-0.2,2.3
		c0.3-0.4,0.9-0.8,1.7-0.8c1.1,0,1.8,0.7,1.8,1.8v1.7c0,1.4-0.9,2.2-2.4,2.2c-1.5,0-2.3-1-2.3-2.1v-0.4h1.1v0.3
		c0,0.8,0.4,1.3,1.2,1.3c0.8,0,1.2-0.4,1.2-1.3v-1.4c0-0.6-0.4-1-0.9-1c-0.8,0-1.2,0.5-1.4,1l-1-0.2l0.3-4.3h4.3
		C113.8,446.7,113.6,447.1,112.8,447.1L112.8,447.1z"/>
</g>
<g>
	<g class="st5">
		<path class="st2" d="M87.5,429.5h-7.2V454H73v-24.4h-7.2V423h21.6V429.5z"/>
		<path class="st2" d="M98.1,429.7v5.7h8.9v6.5h-8.9V454H91v-31h23.2v6.7H98.1z"/>
	</g>
	<g class="st5">
		<path class="st2" d="M80.1,402.8v-3.3h-8.6v14.8h8.6v-3.2h-3.7v-5.5h9.7v5.5v5.9c0,0.8-0.3,1.4-0.9,2s-1.3,0.8-2.1,0.8H68.4
			c-0.8,0-1.5-0.3-2.1-0.8s-0.9-1.2-0.9-2v-20.2c0-0.8,0.3-1.4,0.9-2s1.3-0.8,2.1-0.8h14.6c0.8,0,1.5,0.3,2.1,0.8s0.9,1.2,0.9,2v6
			H80.1z"/>
		<path class="st2" d="M107.6,419.8l-2-6.1h-9.5l-2.1,6.1h-6.2l8.4-25.6h9.2l8.4,25.6H107.6z M100.9,399.6l-2.9,8.6h5.8L100.9,399.6
			z"/>
	</g>
</g>
<path class="st2" d="M89.2,338.9L95,357h18.7l-15.1,11.2l5.8,18.1l-15.1-11.2l-15.1,11.2l5.8-18.1L64.7,357h18.7L89.2,338.9z"/>
<path class="st3" d="M89.4,345.3l4.4,13.8H108l-11.5,8.5l4.4,13.8l-11.5-8.5l-11.5,8.5l4.4-13.8l-11.5-8.5H85L89.4,345.3z"/>
<path class="st4" d="M89.3,356.3l2,6.2h6.4l-5.2,3.8l2,6.2l-5.2-3.8l-5.2,3.8l2-6.2l-5.2-3.8h6.4L89.3,356.3z M-130,326.5h80v141
	h-80V326.5z"/>
<g>
	<path class="st1" d="M-73.2,454v-7.4c0.4,0,0.6-0.3,0.6-0.6h0.7v8L-73.2,454L-73.2,454z M-66.9,447.1h-2.2l-0.2,2.3
		c0.3-0.4,0.9-0.8,1.7-0.8c1.1,0,1.8,0.7,1.8,1.8v1.7c0,1.4-0.8,2.2-2.4,2.2c-1.5,0-2.3-1-2.3-2.1v-0.4h1.1v0.3
		c0,0.8,0.4,1.3,1.2,1.3c0.8,0,1.2-0.4,1.2-1.3v-1.4c0-0.6-0.3-1-0.9-1c-0.8,0-1.2,0.5-1.5,1l-1-0.2l0.3-4.3h4.3
		C-66,446.7-66.1,447.1-66.9,447.1L-66.9,447.1z"/>
</g>
<g>
	<g class="st5">
		<path class="st3" d="M-92.2,429.5h-7.2V454h-7.3v-24.4h-7.2V423h21.6V429.5z"/>
		<path class="st3" d="M-81.6,429.7v5.7h8.9v6.5h-8.9V454h-7.2v-31h23.2v6.7H-81.6z"/>
	</g>
	<g class="st5">
		<path class="st3" d="M-99.7,402.8v-3.3h-8.6v14.8h8.6v-3.2h-3.7v-5.5h9.7v5.5v5.9c0,0.8-0.3,1.4-0.9,2c-0.6,0.5-1.3,0.8-2.1,0.8
			h-14.6c-0.8,0-1.5-0.3-2.1-0.8s-0.9-1.2-0.9-2v-20.2c0-0.8,0.3-1.4,0.9-2s1.3-0.8,2.1-0.8h14.6c0.8,0,1.5,0.3,2.1,0.8
			c0.6,0.5,0.9,1.2,0.9,2v6H-99.7z"/>
		<path class="st3" d="M-72.1,419.8l-2-6.1h-9.5l-2.1,6.1h-6.2l8.4-25.6h9.2l8.4,25.6H-72.1z M-78.9,399.6l-2.9,8.6h5.8L-78.9,399.6
			z"/>
	</g>
</g>
<path class="st2" d="M-90.5,338.9l5.8,18.1H-66l-15.1,11.2l5.8,18.1l-15.1-11.2l-15.1,11.2l5.8-18.1L-115,357h18.7L-90.5,338.9z"/>
<path class="st3" d="M-90.4,345.3l4.4,13.8h14.2l-11.5,8.5l4.4,13.8l-11.5-8.5l-11.5,8.5l4.4-13.8l-11.5-8.5h14.2L-90.4,345.3z"/>
<path class="st4" d="M-90.5,356.3l2,6.2h6.4l-5.2,3.8l2,6.2l-5.2-3.8l-5.2,3.8l2-6.2l-5.2-3.8h6.4L-90.5,356.3z"/>
<path class="st6" d="M139.6,326.5h80v141h-80V326.5z"/>
<g>
	<path class="st3" d="M196.4,454v-7.4c0.4,0,0.5-0.3,0.5-0.6h0.6v8L196.4,454L196.4,454z M202.7,447.1h-2.2l-0.2,2.3
		c0.3-0.4,0.9-0.8,1.7-0.8c1.1,0,1.8,0.7,1.8,1.8v1.7c0,1.4-0.9,2.2-2.4,2.2c-1.5,0-2.3-1-2.3-2.1v-0.4h1.1v0.3
		c0,0.8,0.4,1.3,1.2,1.3c0.8,0,1.2-0.4,1.2-1.3v-1.4c0-0.6-0.4-1-1-1c-0.8,0-1.2,0.5-1.5,1l-1-0.2l0.3-4.3h4.3
		C203.7,446.7,203.5,447.1,202.7,447.1L202.7,447.1z"/>
</g>
<g>
	<g class="st5">
		<path class="st1" d="M177.4,429.5h-7.2V454h-7.3v-24.4h-7.2V423h21.6V429.5z"/>
		<path class="st1" d="M188,429.7v5.7h8.9v6.5H188V454h-7.2v-31h23.2v6.7H188z"/>
	</g>
	<g class="st5">
		<path class="st1" d="M169.9,402.8v-3.3h-8.6v14.8h8.6v-3.2h-3.7v-5.5h9.7v5.5v5.9c0,0.8-0.3,1.4-0.9,2s-1.3,0.8-2.1,0.8h-14.6
			c-0.8,0-1.5-0.3-2.1-0.8s-0.9-1.2-0.9-2v-20.2c0-0.8,0.3-1.4,0.9-2s1.3-0.8,2.1-0.8h14.6c0.8,0,1.5,0.3,2.1,0.8s0.9,1.2,0.9,2v6
			H169.9z"/>
		<path class="st1" d="M197.5,419.8l-2-6.1H186l-2.1,6.1h-6.2l8.4-25.6h9.2l8.4,25.6H197.5z M190.7,399.6l-2.9,8.6h5.8L190.7,399.6z
			"/>
	</g>
</g>
<path class="st2" d="M179.1,338.9l5.8,18.1h18.7l-15.1,11.2l5.8,18.1l-15.1-11.2L164,386.3l5.8-18.1L154.6,357h18.7L179.1,338.9z"/>
<path class="st3" d="M179.2,345.3l4.4,13.8h14.2l-11.5,8.5l4.4,13.8l-11.5-8.5l-11.5,8.5l4.4-13.8l-11.5-8.5h14.2L179.2,345.3z"/>
<path class="st4" d="M179.1,356.3l2,6.2h6.4l-5.2,3.8l2,6.2l-5.2-3.8l-5.2,3.8l2-6.2l-5.2-3.8h6.4L179.1,356.3z"/>
<ellipse class="st0" cx="262.4" cy="-1162.8" rx="212.5" ry="212.7"/>
<ellipse transform="matrix(0.7071 -0.7071 0.7071 0.7071 898.9582 -155.1445)" class="st7" cx="262.2" cy="-1162.7" rx="234.5" ry="234.3"/>
<text transform="matrix(0.5082 0.8613 -0.8613 0.5082 21.6428 -1034.9025)" class="st0" style="font-family:'ONRAMP'; font-size:52.6208px;">o</text>
<text transform="matrix(0.5082 0.8613 -0.8613 0.5082 35.5437 -1011.7651)" class="st0" style="font-family:'ONRAMP'; font-size:52.6208px;">c</text>
<text transform="matrix(0.5082 0.8613 -0.8613 0.5082 49.054 -993.2809)" class="st0" style="font-family:'ONRAMP'; font-size:52.6208px;">t</text>
<text transform="matrix(0.5082 0.8613 -0.8613 0.5082 63.3635 -976.4904)" class="st0" style="font-family:'ONRAMP'; font-size:52.6208px;">o</text>
<text transform="matrix(0.5082 0.8613 -0.8613 0.5082 82.739 -957.8748)" class="st0" style="font-family:'ONRAMP'; font-size:52.6208px;">b</text>
<text transform="matrix(0.5082 0.8613 -0.8613 0.5082 101.7767 -942.6166)" class="st0" style="font-family:'ONRAMP'; font-size:52.6208px;">e</text>
<text transform="matrix(0.5082 0.8613 -0.8613 0.5082 121.8846 -929.2053)" class="st0" style="font-family:'ONRAMP'; font-size:52.6208px;">r</text>
<text transform="matrix(0.5082 0.8613 -0.8613 0.5082 159.1374 -910.5844)" class="st0" style="font-family:'ONRAMP'; font-size:52.6208px;">0</text>
<text transform="matrix(0.5082 0.8613 -0.8613 0.5082 181.2536 -902.6544)" class="st0" style="font-family:'ONRAMP'; font-size:52.6208px;">8</text>
<text transform="matrix(0.5082 0.8613 -0.8613 0.5082 219.2062 -893.8304)" class="st0" style="font-family:'ONRAMP'; font-size:52.6208px;">-</text>
<text transform="matrix(0.5082 0.8613 -0.8613 0.5082 255.9618 -890.5759)" class="st0" style="font-family:'ONRAMP'; font-size:52.6208px;">1</text>
<text transform="matrix(0.5082 0.8613 -0.8613 0.5082 272.5578 -890.7038)" class="st0" style="font-family:'ONRAMP'; font-size:52.6208px;">1</text>
<text transform="matrix(0.5082 0.8613 -0.8613 0.5082 304.4489 -893.8239)" class="st0" style="font-family:'ONRAMP'; font-size:52.6208px;">|</text>
<text transform="matrix(0.5082 0.8613 -0.8613 0.5082 333.7759 -899.9187)" class="st0" style="font-family:'ONRAMP'; font-size:52.6208px;">D</text>
<text transform="matrix(0.5082 0.8613 -0.8613 0.5082 357.4348 -907.5349)" class="st0" style="font-family:'ONRAMP'; font-size:52.6208px;">e</text>
<text transform="matrix(0.5082 0.8613 -0.8613 0.5082 379.73 -916.9294)" class="st0" style="font-family:'ONRAMP'; font-size:52.6208px;">n</text>
<text transform="matrix(0.5082 0.8613 -0.8613 0.5082 403.5901 -929.862)" class="st0" style="font-family:'ONRAMP'; font-size:52.6208px;">v</text>
<text transform="matrix(0.5082 0.8613 -0.8613 0.5082 425.1937 -944.5132)" class="st0" style="font-family:'ONRAMP'; font-size:52.6208px;">e</text>
<text transform="matrix(0.5082 0.8613 -0.8613 0.5082 443.7057 -959.6705)" class="st0" style="font-family:'ONRAMP'; font-size:52.6208px;">r</text>
<text transform="matrix(0.5082 0.8613 -0.8613 0.5082 461.7635 -977.6383)" class="st0" style="font-family:'ONRAMP'; font-size:52.6208px;">,</text>
<text transform="matrix(0.5082 0.8613 -0.8613 0.5082 478.3497 -996.984)" class="st0" style="font-family:'ONRAMP'; font-size:52.6208px;">c</text>
<text transform="matrix(0.5082 0.8613 -0.8613 0.5082 491.789 -1015.9504)" class="st0" style="font-family:'ONRAMP'; font-size:52.6208px;">o</text>
<ellipse class="st1" cx="262.4" cy="-1162.8" rx="199.4" ry="199.5"/>
<ellipse class="st1" cx="262.4" cy="-1162.8" rx="199.4" ry="199.5"/>
<path class="st2" d="M262.4-1337l38.3,120h123.9l-100.3,74.2l38.3,120l-100.3-74.2l-100.3,74.2l38.3-120l-100.3-74.2h124L262.4-1337
	z"/>
<path class="st3" d="M263.3-1294.4l29.1,91.2h94.1l-76.2,56.3l29.1,91.1l-76.2-56.3l-76.2,56.3l29.1-91.1l-76.2-56.3h94.1
	L263.3-1294.4z"/>
<path class="st4" d="M262.5-1221.9l13.2,41.2h42.6l-34.4,25.5l13.1,41.2l-34.4-25.5l-34.4,25.5l13.1-41.2l-34.4-25.5h42.6
	L262.5-1221.9z"/>
<text transform="matrix(0.999 0 0 1 521.5713 -1112.7402)" class="st2" style="font-family:'ONRAMP'; font-size:188.856px;">2</text>
<text transform="matrix(0.999 0 0 1 598.7324 -1112.7402)" class="st2" style="font-family:'ONRAMP'; font-size:188.856px;">0</text>
<text transform="matrix(0.999 0 0 1 672.6895 -1112.7402)" class="st2" style="font-family:'ONRAMP'; font-size:188.856px; letter-spacing:-2;">15</text>
<text transform="matrix(0.999 0 0 1 -313.5557 -1112.5107)" class="st2" style="font-family:'ONRAMP'; font-size:196.191px; letter-spacing:3;">G</text>
<text transform="matrix(0.999 0 0 1 -229.6709 -1112.5107)" class="st2" style="font-family:'ONRAMP'; font-size:196.191px;">A</text>
<text transform="matrix(0.999 0 0 1 -141.8667 -1112.5107)" class="st2" style="font-family:'ONRAMP'; font-size:196.191px;">T</text>
<text transform="matrix(0.999 0 0 1 -71.5063 -1112.5107)" class="st2" style="font-family:'ONRAMP'; font-size:196.191px; letter-spacing:-2;">F</text>
<path class="st4" d="M-392.8-1182.8l7.8,24.3h25.1l-20.3,15l7.8,24.3l-20.3-15l-20.3,15l7.8-24.3l-20.3-15h25.1L-392.8-1182.8z
	 M883.6-1182.8l7.8,24.3h25.1l-20.3,15l7.8,24.3l-20.3-15l-20.3,15l7.8-24.3l-20.3-15h25.1L883.6-1182.8z"/>
<g>
	<text transform="matrix(1 0 0 1 242.633 -1029.3359)" class="st2" style="font-family:'ONRAMP'; font-size:54.771px;">tf</text>
	<text transform="matrix(1 0 0 1 242.868 -1055.728)" class="st2" style="font-family:'ONRAMP'; font-size:44.741px;">ga</text>
</g>
</svg>
