<?xml version="1.0" encoding="utf-8"?>
<!-- Generator: Adobe Illustrator 18.1.1, SVG Export Plug-In . SVG Version: 6.00 Build 0)  -->
<!DOCTYPE svg PUBLIC "-//W3C//DTD SVG 1.1//EN" "http://www.w3.org/Graphics/SVG/1.1/DTD/svg11.dtd">
<svg version="1.1" id="Layer_1" xmlns="http://www.w3.org/2000/svg" xmlns:xlink="http://www.w3.org/1999/xlink" x="0px" y="0px"
	 width="28.8px" height="28.8px" viewBox="0 0 28.8 28.8" enable-background="new 0 0 28.8 28.8" xml:space="preserve">
<g>
	<g>
		<path fill="#007BB6" d="M26.6,0H2.1C1,0,0,0.9,0,2.1v24.6c0,1.1,1,2.1,2.1,2.1h24.5c1.2,0,2.1-0.9,2.1-2.1V2.1
			C28.8,0.9,27.8,0,26.6,0L26.6,0z"/>
		<path fill="#FFFFFF" d="M6.4,4c1.4,0,2.5,1.1,2.5,2.5c0,1.4-1.1,2.5-2.5,2.5C5,8.9,3.9,7.8,3.9,6.4C3.9,5.1,5,4,6.4,4 M4.3,10.8
			h4.3v13.7H4.3V10.8L4.3,10.8z"/>
		<path fill="#FFFFFF" d="M11.2,10.8h4.1v1.9h0.1c0.6-1.1,2-2.2,4-2.2c4.3,0,5.1,2.8,5.1,6.5v7.5h-4.3v-6.7c0-1.6,0-3.6-2.2-3.6
			c-2.2,0-2.6,1.7-2.6,3.5v6.8h-4.3V10.8L11.2,10.8z"/>
	</g>
</g>
</svg>
