<?xml version="1.0" encoding="utf-8"?>
<!-- Generator: Adobe Illustrator 18.1.1, SVG Export Plug-In . SVG Version: 6.00 Build 0)  -->
<!DOCTYPE svg PUBLIC "-//W3C//DTD SVG 1.1//EN" "http://www.w3.org/Graphics/SVG/1.1/DTD/svg11.dtd">
<svg version="1.1" id="Layer_1" xmlns="http://www.w3.org/2000/svg" xmlns:xlink="http://www.w3.org/1999/xlink" x="0px" y="0px"
	 width="29.3px" height="27.4px" viewBox="0 0 29.3 27.4" enable-background="new 0 0 29.3 27.4" xml:space="preserve">
<g>
	<path fill="#010101" d="M28.6,12.9c-1-1-2.7-1-3.7,0l-2.8,2.8c-0.8,0.8-1,2-0.5,3l-1,1c-1-0.5-2.2-0.3-3,0.5l-2.8,2.8
		c-1,1-1,2.7,0,3.7c1,1,2.7,1,3.7,0l2.8-2.8c0.8-0.8,1-2.1,0.5-3.1l1-1c1,0.5,2.3,0.4,3.1-0.5l2.8-2.8
		C29.6,15.5,29.6,13.9,28.6,12.9z M20.4,23l-2.8,2.8c-0.5,0.5-1.4,0.5-2,0c-0.5-0.5-0.5-1.4,0-2l2.8-2.8c0.3-0.3,0.7-0.4,1.1-0.4
		l-0.7,0.7c-0.3,0.3-0.3,0.8,0,1.2c0.3,0.3,0.8,0.3,1.2,0l0.8-0.8C20.9,22.2,20.8,22.6,20.4,23z M27.7,15.7l-2.8,2.8
		c-0.4,0.4-0.8,0.5-1.3,0.4l0.5-0.5c0.3-0.3,0.3-0.8,0-1.2c-0.3-0.3-0.8-0.3-1.2,0l-0.4,0.4c0-0.4,0.1-0.8,0.4-1.1l2.8-2.8
		c0.5-0.5,1.4-0.5,2,0C28.3,14.3,28.3,15.2,27.7,15.7z M13.3,25.1c0,0.6,0.2,1.2,0.5,1.8c-3.6,0.1-6.8-1-9.5-3.5
		c-2.5-2.3-3.9-5.1-4.3-8.4c-0.8-7,4.2-13.6,11.2-14.6c0.7-0.1,1.4-0.2,2-0.2c0,0,0.1,0,0.1,0c0.7,0.1,1.5,0.1,2.2,0.2
		c3.6,0.6,6.5,2.4,8.7,5.4c1.2,1.6,2,3.4,2.3,5.3c-0.7,0.2-1.4,0.5-2,1.1l-1.2,1.2c-0.1-0.2-0.1-0.4-0.1-0.6c0-0.6-0.1-0.8-0.8-0.9
		c-0.7-0.1-0.9-0.4-0.7-1.1c0.1-0.4,0.3-0.9,0.5-1.3c0.2-0.4,0.3-0.9,0.2-1.4c-0.1-0.4-0.1-0.9,0.3-1.3c-0.4-0.4-0.7-0.9-1.1-1.2
		c-0.2-0.2-0.3-0.1-0.4,0.1c0,0.1,0,0.1,0,0.2c-0.1,0.6-0.5,0.7-1,0.4C20.3,6.1,20.2,6,20.1,6c-0.1-0.1-0.3-0.1-0.5-0.1
		c-0.5,0.1-0.6,0-0.5-0.5c0-0.4-0.1-0.5-0.4-0.5c-0.1,0-0.2,0-0.4,0c-0.4,0-0.6-0.3-0.5-0.7c0-0.2,0.2-0.4,0.2-0.6
		c0-0.1,0.1-0.4,0-0.4c-0.3-0.3-0.6-0.6-0.9-0.8c-0.6-0.4-1.2-0.1-1.9,0C15.1,3.1,15,3.2,14.6,3c-0.6-0.2-1.1-0.4-1.5-0.9
		C13,2.1,12.9,2,12.8,2c-0.6,0.1-1.2,0.1-1.8,0.2c-0.1,0-0.2,0.1-0.2,0.2c0,0.1,0.1,0.3,0.1,0.3c0.2,0,0.4,0,0.6,0
		c0.2-0.1,0.4-0.3,0.7-0.4c0.3-0.1,0.5,0,0.6,0.3c0.1,0.4,0,0.7-0.3,0.9c-0.4,0.3-0.8,0.5-1.3,0.7c-0.3,0.2-0.6,0.3-0.9,0.5
		c-0.2,0.2-0.4,0.4-0.2,0.7c0.2,0.3,0.4,0.2,0.7,0.1c0.2-0.1,0.5-0.2,0.7-0.3c0.1-0.1,0.2-0.2,0.4-0.3c0.3-0.2,0.4-0.1,0.5,0.2
		c0.2,0.5,0.5,0.6,0.9,0.3c0.2-0.1,0.3-0.3,0.5-0.4c0.3-0.2,0.6,0,0.6,0.3c0,0.4,0.1,0.5,0.6,0.5c0.3,0,0.5-0.1,0.8-0.1
		c0,0,0,0.1,0.1,0.1c-0.1,0.2-0.1,0.4-0.3,0.5c-0.2,0.2-0.5,0.3-0.7,0.4c-0.4,0.2-0.7,0.2-0.7,0.3c0,0,0.5,0.2,0.2,0.3
		c-0.4,0.1-1.1,0.8-0.2,0.5c0.2-0.1,0.3-0.1,0.6-0.2c-0.2,0.6-0.6,0.8-1.1,1.1c-1.3,0.7-1.3,2.3-0.7,3.1c0.1,0.2,0.3,0.4,0.4,0.6
		c0.1,0.2,0.1,0.5-0.1,0.6c-0.2,0.1-0.5,0.1-0.6,0c-0.3-0.3-0.6-0.6-0.9-0.9c-0.3-0.4-0.6-0.9-0.9-1.3c-1.1-1.3-2.4-1-3.5,0
		c-0.3,0.2-0.2,0.5,0.1,0.7c0.1,0.1,0.2,0.1,0.3,0.2c0.5,0.2,1,0.4,1.5,0.6c0.1,0,0.2,0.1,0.3,0.2c0.2,0.1,0.2,0.3,0,0.4
		c-0.2,0.1-0.3,0.1-0.5,0.1c-0.3,0.1-0.7,0.1-1,0.2c-0.2,0.1-0.4,0.3-0.4,0.5c0,0.1,0.2,0.3,0.3,0.5c0.1,0.1,0.3,0.1,0.4,0.2
		c0.2,0.1,0.4,0.2,0.5,0.4c0.2,0.3,0.4,0.3,0.7,0.1c0.3-0.2,0.6-0.3,0.9-0.5c0.3-0.2,0.4-0.2,0.6,0.2c0.2,0.4,0.6,0.8,1.1,0.7
		c0.4-0.1,0.8-0.2,1.1-0.4c0.3-0.1,0.5-0.2,0.8-0.2c0.5-0.1,1,0.4,1,1c0,0.6-0.3,1.1-0.7,1.5c-0.4,0.4-0.7,0.9-0.5,1.5
		c0.2,0.7,0,1.2-0.5,1.7c-0.4,0.3-0.7,0.6-1.1,0.8c-0.5,0.3-1.2,2-1.1,2.6c0,0.1,0,0.1,0,0.2c0,0.6-0.4,0.5-0.9,0.6
		c-0.3,0.1-0.3-0.6-0.4-0.9c-0.1-0.3-0.1-0.6,0-0.9c0-0.3,0.2-0.6,0.3-0.9c0.2-0.6,0.1-1.1-0.4-1.6c-0.2-0.2-0.4-0.4-0.6-0.6
		c-0.7-0.7-1.1-1.5-1.1-2.5c0-0.5,0.2-0.7,0.7-0.8c0.1,0,0.2,0,0.3,0c-0.1-0.4-0.2-0.6-0.6-0.6c-0.4,0-0.6-0.2-0.7-0.6
		c-0.1-0.1-0.1-0.3-0.1-0.5c-0.1-0.4-0.2-0.8-0.4-1.1c-0.2-0.3-0.4-0.5-0.3-0.9c0-0.2-0.1-0.4-0.2-0.5c-0.3-0.3-0.6-0.6-0.8-0.9
		c-0.1-0.1-0.3-0.2-0.4-0.4c0,0.3,0,0.5,0,0.7c0,0.3,0,0.5-0.1,0.8c0,0.1-0.2,0.3-0.4,0.3c-0.1,0-0.4-0.2-0.4-0.3
		c-0.1-0.3-0.1-0.5,0-0.8c0.3-1.2,0.4-2.4,0.2-3.7C4.6,7.4,4.5,7,4.4,6.5c-2.4,2.8-3.5,7.8-1.2,12.3C5.3,22.7,9.2,25,13.3,25.1z"/>
</g>
</svg>
